<?xml version="1.0" encoding="UTF-8"?>
<svg version="1.1" xmlns="http://www.w3.org/2000/svg" width="569" height="282">
<path d="M0 0 C187.77 0 375.54 0 569 0 C569 93.06 569 186.12 569 282 C381.23 282 193.46 282 0 282 C0 188.94 0 95.88 0 0 Z " fill="#FEFEFE" transform="translate(0,0)"/>
<path d="M0 0 C1.25067764 -0.00426498 2.50135529 -0.00852997 3.78993225 -0.01292419 C5.18365482 -0.01257465 6.57737736 -0.0121131 7.97109985 -0.0115509 C9.43286729 -0.01454172 10.89463394 -0.01794407 12.35639954 -0.02172852 C16.33369977 -0.03058113 20.31097851 -0.03290717 24.28828764 -0.0335443 C27.60592649 -0.03449256 30.92356031 -0.03816993 34.24119723 -0.0417164 C42.06767126 -0.04986593 49.89413379 -0.0523002 57.72061157 -0.05158997 C65.79922712 -0.05098919 73.87777588 -0.06153974 81.95637453 -0.07733363 C88.88720877 -0.09040173 95.81802116 -0.09577416 102.74886763 -0.09513456 C106.89053862 -0.09487933 111.03215031 -0.0977439 115.17380905 -0.10831261 C119.06928747 -0.11798121 122.96464975 -0.11808132 126.86013222 -0.11079597 C128.29040636 -0.10974855 129.72068768 -0.11212236 131.15094948 -0.11815643 C133.10249015 -0.12585676 135.05407025 -0.12004105 137.00561523 -0.11352539 C138.09810766 -0.11407016 139.19060009 -0.11461493 140.31619835 -0.1151762 C143.16880597 0.13716399 144.76830236 0.5450803 147.12979126 2.13371277 C151.66354338 8.93434095 148.35627469 18.82543283 147.04776001 26.39933777 C146.83291458 27.66912476 146.61806915 28.93891174 146.39671326 30.24717712 C145.94268199 32.92737071 145.48412757 35.60673746 145.02212524 38.28556824 C144.43625891 41.68399809 143.86033137 45.08401732 143.2876997 48.48469925 C142.73341801 51.76957987 142.17158352 55.05315299 141.61026001 58.33683777 C141.40700607 59.54035889 141.20375214 60.74388 140.99433899 61.98387146 C140.0187563 67.61594236 138.96532984 73.22839513 137.72476196 78.80851746 C137.51511307 79.76296753 137.30546417 80.7174176 137.08946228 81.70079041 C135.91126132 84.68772177 134.85698397 85.48244974 132.12979126 87.13371277 C129.68377781 87.51682281 129.68377781 87.51682281 126.89897156 87.52812195 C125.84051529 87.53947174 124.78205902 87.55082153 123.69152832 87.56251526 C121.95759323 87.55811935 121.95759323 87.55811935 120.18862915 87.55363464 C118.96712662 87.56210419 117.74562408 87.57057373 116.48710632 87.57929993 C113.13982713 87.59869129 109.7931054 87.60444699 106.4458077 87.60255241 C103.65006179 87.60243269 100.854368 87.61099755 98.05863661 87.61932993 C91.46228362 87.63856181 84.86605718 87.64144858 78.26968384 87.63468933 C71.46780467 87.6280477 64.66646767 87.65091761 57.86469847 87.68800306 C52.02166878 87.71870355 46.17881347 87.73005978 40.33570474 87.72616625 C36.84725928 87.72409913 33.35923577 87.72957133 29.87086678 87.75405884 C25.98047778 87.78046664 22.09079862 87.76659527 18.2003479 87.74894714 C17.04641541 87.76221039 15.89248291 87.77547363 14.70358276 87.78913879 C6.92827653 87.70701892 6.92827653 87.70701892 2.94923401 84.85009766 C1.31152282 82.40503369 0.41115447 80.9145197 -0.05184937 78.05632019 C-0.25934814 76.88424515 -0.25934814 76.88424515 -0.47103882 75.68849182 C-0.66862793 74.42387619 -0.66862793 74.42387619 -0.87020874 73.13371277 C-1.20979733 71.27588088 -1.55034239 69.41822365 -1.89169312 67.56071472 C-2.25142596 65.49820956 -2.60873463 63.4352805 -2.96395874 61.37199402 C-3.1561499 60.26373764 -3.34834106 59.15548126 -3.5463562 58.01364136 C-3.95076954 55.67827749 -4.35411197 53.34272794 -4.75643921 51.00700378 C-5.36545003 47.4738205 -5.97891111 43.94143068 -6.59286499 40.40910339 C-7.54342427 34.92478523 -8.47906698 29.43815976 -9.39865112 23.94856262 C-9.69249701 22.19452025 -9.98857209 20.44084804 -10.28805542 18.6877594 C-10.62448875 16.70301908 -10.94363268 14.71536744 -11.26083374 12.72746277 C-11.42615601 11.70974792 -11.59147827 10.69203308 -11.7618103 9.64347839 C-11.87994 6.90840331 -11.55444487 5.6260927 -10.12020874 3.32121277 C-6.64897179 -0.05360093 -4.74724285 0.00728713 0 0 Z " fill="#FEFEFE" transform="translate(50.870208740234375,151.8662872314453)"/>
<path d="M0 0 C10.81325575 -0.51738066 20.40712964 3.51791108 28.76171875 10.1953125 C29.43847656 10.72382812 30.11523438 11.25234375 30.8125 11.796875 C37.23153946 17.45560105 40.35295794 24.71183741 43.86865234 32.33740234 C45.03504123 34.76392488 46.4097147 37.05584215 47.76171875 39.3828125 C51.36042028 46.60453111 50.74213648 54.83090619 48.38671875 62.3828125 C47.41353927 65.03202332 46.79798134 66.15904991 44.76171875 68.1953125 C42.32421875 68.3203125 42.32421875 68.3203125 39.76171875 67.1953125 C38.39175764 64.63337735 37.54386509 61.98687544 36.76171875 59.1953125 C36.57609375 60.21625 36.57609375 60.21625 36.38671875 61.2578125 C33.58953256 74.40458757 28.23816455 87.47324302 16.76171875 95.1953125 C13.11382832 97.37001641 9.97458619 98.70544419 5.76171875 99.1953125 C5.11460938 99.27136719 4.4675 99.34742187 3.80078125 99.42578125 C-3.81033806 99.91983636 -9.43829533 97.10360497 -15.40234375 92.5390625 C-20.57183654 87.82863664 -23.4620514 82.44693176 -26.40234375 76.1484375 C-29.1023743 71.80540964 -32.44242114 69.79393254 -37.23828125 68.1953125 C-38.06328125 68.1334375 -38.88828125 68.0715625 -39.73828125 68.0078125 C-42.23828125 67.1953125 -42.23828125 67.1953125 -43.98828125 64.3828125 C-47.49788713 55.4333175 -47.75658655 47.49739691 -44.1015625 38.578125 C-39.53489632 28.34338115 -34.86548039 18.58784987 -26.23828125 11.1953125 C-25.48675781 10.52628906 -24.73523438 9.85726562 -23.9609375 9.16796875 C-16.51037457 2.9400623 -9.60434744 0.83807569 0 0 Z " fill="#6535C8" transform="translate(117.23828125,26.8046875)"/>
<path d="M0 0 C0.29390625 0.83917969 0.29390625 0.83917969 0.59375 1.6953125 C2.64811047 7.20312377 5.14482462 12.28643519 8.0625 17.375 C8.4028125 17.96941895 8.743125 18.56383789 9.09375 19.17626953 C10.53602542 21.6504453 12.0081463 24.01067948 13.74609375 26.2890625 C15 28 15 28 15 30 C16.98 30 18.96 30 21 30 C21.33 26.04 21.66 22.08 22 18 C20.68 17.34 19.36 16.68 18 16 C17.505 13.525 17.505 13.525 17 11 C22.94 11 28.88 11 35 11 C34.67 12.65 34.34 14.3 34 16 C32.68 16.66 31.36 17.32 30 18 C30.495 23.94 30.495 23.94 31 30 C32.98 30 34.96 30 37 30 C37.20625 29.34 37.4125 28.68 37.625 28 C38.81132451 25.41165561 39.88839737 23.75684843 41.625 21.5625 C44.552218 17.78964124 46.95359975 13.8280775 49.3125 9.6875 C49.66199707 9.07656494 50.01149414 8.46562988 50.37158203 7.83618164 C51.82983752 5.24528311 53.05722581 2.82832256 54 0 C65.31177546 1.27713594 76.60646549 6.30928951 84.3125 14.8125 C92 24.77777778 92 24.77777778 92 30 C93.19625 29.938125 94.3925 29.87625 95.625 29.8125 C99.78117941 29.82721214 102.49467812 30.63594571 106 33 C107.9375 35 107.9375 35 109 38 C108.83978063 45.86640995 107.33761361 53.72328819 106.0390625 61.46484375 C105.75221085 63.19668663 105.75221085 63.19668663 105.45956421 64.96351624 C105.05644076 67.38999469 104.65126951 69.81613375 104.24414062 72.24194336 C103.62749646 75.922599 103.02037961 79.60474019 102.4140625 83.28710938 C102.01880413 85.65895005 101.62298913 88.03069805 101.2265625 90.40234375 C101.0483194 91.48708481 100.87007629 92.57182587 100.68643188 93.68943787 C99.78810464 98.99967343 98.78922825 104.28173724 97.61083984 109.53735352 C97.39889984 110.4910231 97.18695984 111.44469269 96.96859741 112.42726135 C95.59211871 116.08339332 93.48394806 118.25802597 90 120 C88.32625935 120.1013982 86.64851697 120.13945102 84.97172546 120.14717102 C83.90760437 120.15432632 82.84348328 120.16148163 81.74711609 120.16885376 C80.57461807 120.17154266 79.40212006 120.17423157 78.1940918 120.17700195 C76.96312775 120.18357315 75.7321637 120.19014435 74.46389771 120.19691467 C71.08154426 120.21327061 67.69925343 120.22487708 64.31687522 120.2331202 C62.2038554 120.23826995 60.09083998 120.2443457 57.97782326 120.25063133 C51.36716214 120.26968426 44.7565122 120.28391507 38.1458289 120.2922433 C30.51400975 120.3020166 22.88248057 120.32833775 15.2507636 120.36874419 C9.35260225 120.39890096 3.45452405 120.41371174 -2.44371289 120.41702431 C-5.96680541 120.41937536 -9.48958819 120.42834218 -13.01259804 120.45348549 C-16.94379593 120.48108848 -20.87461208 120.47693637 -24.8059082 120.4699707 C-25.97233353 120.48278076 -27.13875885 120.49559082 -28.3405304 120.50878906 C-36.130837 120.45835512 -36.130837 120.45835512 -40.13713074 118.34562683 C-43.64173732 113.93281086 -44.30641254 108.92223208 -45.23681641 103.47900391 C-45.45689362 102.20392975 -45.67697083 100.92885559 -45.90371704 99.61514282 C-46.13662967 98.23566624 -46.36923732 96.85613814 -46.6015625 95.4765625 C-46.84510044 94.04694833 -47.08886851 92.61737334 -47.33285522 91.18783569 C-47.84198783 88.19769983 -48.3474922 85.20697791 -48.85058594 82.21582031 C-49.49288256 78.39952399 -50.14545999 74.5850688 -50.80095863 70.77102089 C-51.306627 67.82054147 -51.80612008 64.86904102 -52.30387497 61.91721725 C-52.54184359 60.51118843 -52.78183983 59.1055011 -53.02397537 57.70018387 C-56.22365644 39.08474801 -56.22365644 39.08474801 -53.3125 34.125 C-49.79222055 30.89014861 -47.28950339 30 -42.5 30 C-38.96114165 29.41409194 -38.96114165 29.41409194 -37.828125 27.1015625 C-37.47234375 26.28429687 -37.1165625 25.46703125 -36.75 24.625 C-32.10670739 14.03343712 -22.57197184 6.31922743 -12 2 C-7.95615852 0.74775302 -4.23420731 0 0 0 Z M-53 37 C-54.49702028 41.0963 -53.78557411 44.65716954 -53.07543945 48.89819336 C-52.9649678 49.57203568 -52.85449615 50.24587799 -52.74067688 50.94013977 C-52.37421508 53.15838243 -51.99443985 55.37408252 -51.61328125 57.58984375 C-51.35202178 59.13767872 -51.09113779 60.68557711 -50.83061218 62.23353577 C-50.2826806 65.47506008 -49.72769939 68.71528495 -49.16821289 71.95483398 C-48.45398865 76.09583117 -47.76118431 80.24008863 -47.07415485 84.38567257 C-46.54113492 87.58310838 -45.99477489 90.77815882 -45.44463158 93.97268867 C-45.18375152 95.49925473 -44.92742411 97.02660636 -44.67583656 98.55473137 C-44.32153783 100.69659724 -43.94884609 102.83449698 -43.5715332 104.97241211 C-43.36422073 106.1875499 -43.15690826 107.40268768 -42.9433136 108.65464783 C-41.88682393 112.4013658 -40.37188568 114.93005025 -38 118 C-35.5031391 119.24843045 -33.80449802 119.13698767 -31.00968933 119.15390015 C-29.95398239 119.16250061 -28.89827545 119.17110107 -27.81057739 119.17996216 C-26.06585648 119.18635208 -26.06585648 119.18635208 -24.28588867 119.19287109 C-22.45407295 119.20513733 -22.45407295 119.20513733 -20.58525085 119.21765137 C-16.52949351 119.24253741 -12.47377349 119.25917885 -8.41796875 119.2734375 C-7.02198085 119.27879715 -5.62599302 119.28417466 -4.23000526 119.28956985 C1.57674801 119.31119851 7.3834985 119.32993537 13.19028187 119.34119225 C21.51320069 119.35743277 29.83565274 119.39061239 38.15839559 119.44759309 C44.00984576 119.48628904 49.86117107 119.50582447 55.71274585 119.51111281 C59.20797398 119.51476682 62.7027043 119.52679179 66.19779396 119.55921555 C70.0979038 119.59487799 73.99742752 119.59092614 77.89770508 119.58349609 C79.05477966 119.59990143 80.21185425 119.61630676 81.4039917 119.63320923 C87.68250038 119.61375311 87.68250038 119.61375311 93.16552734 116.81413269 C95.08782965 113.86526684 95.87917803 111.84640758 96.45385742 108.39038086 C96.74391914 106.7372715 96.74391914 106.7372715 97.0398407 105.05076599 C97.31982658 103.27573448 97.31982658 103.27573448 97.60546875 101.46484375 C97.81561111 100.23520401 98.02575348 99.00556427 98.24226379 97.73866272 C98.7967664 94.47218648 99.33375289 91.20380357 99.86236572 87.93310547 C100.39829509 84.6436843 100.95721782 81.35827759 101.51367188 78.07226562 C102.51612599 72.12873708 103.49996069 66.18245686 104.46884155 60.23336792 C105.1616335 56.01607405 105.88044023 51.80328849 106.60346985 47.59107971 C107.17074685 43.88427476 107.40119337 40.74447142 107 37 C105.12984906 34.56880377 103.71861655 33.35930827 101 32 C99.0476299 31.89547068 97.09166119 31.8560909 95.13652039 31.84609985 C93.26267166 31.83319916 93.26267166 31.83319916 91.35096741 31.82003784 C89.9588322 31.81560249 88.56669656 31.81130414 87.17456055 31.80712891 C85.71441451 31.79922885 84.25427043 31.79095996 82.79412842 31.78234863 C77.99167753 31.75611849 73.18921787 31.74082054 68.38671875 31.7265625 C66.73441881 31.72120333 65.08211893 31.71582582 63.42981911 31.71043015 C56.55763219 31.68880043 49.68544763 31.67006302 42.81323528 31.65880775 C32.95939787 31.64256384 23.10595449 31.60937674 13.25226563 31.55240691 C6.32651436 31.51372812 -0.59913142 31.49417756 -7.52498788 31.48888719 C-11.66293347 31.485231 -15.80045891 31.47318201 -19.93828773 31.44078445 C-23.83146425 31.41073948 -27.7239656 31.40437876 -31.61723328 31.41616821 C-33.04549868 31.41638925 -34.47379508 31.40805908 -35.90195274 31.39051437 C-37.85302677 31.36785189 -39.8044065 31.37909313 -41.75556946 31.39199829 C-42.84714009 31.38868814 -43.93871073 31.385378 -45.06335926 31.38196754 C-48.9784264 32.2059153 -50.48469228 33.96547972 -53 37 Z " fill="#6433C7" transform="translate(93,120)"/>
<path d="M0 0 C38.90740741 0 38.90740741 0 47.4375 8.375 C53.3114245 16.17916598 54.14209506 23.31374093 53 33 C50.52889926 40.88851389 45.73888497 47.07391816 38.55078125 51.1484375 C33.1670179 53.76896809 27.86941142 53.44099461 22 53.25 C20.40865234 53.22292969 20.40865234 53.22292969 18.78515625 53.1953125 C16.1891428 53.14853748 13.59506472 53.08301142 11 53 C11.01160156 54.28777344 11.02320313 55.57554687 11.03515625 56.90234375 C11.0445327 58.58072772 11.05363305 60.25911326 11.0625 61.9375 C11.07087891 62.78763672 11.07925781 63.63777344 11.08789062 64.51367188 C11.09111328 65.32255859 11.09433594 66.13144531 11.09765625 66.96484375 C11.10289307 67.7137085 11.10812988 68.46257324 11.11352539 69.23413086 C11 71 11 71 10 72 C6.7 72 3.4 72 0 72 C0 48.24 0 24.48 0 0 Z " fill="#6636C8" transform="translate(241,90)"/>
<path d="M0 0 C1.3125 0.29166667 2.625 0.58333333 3.9375 0.875 C4.76636719 1.05546875 5.59523438 1.2359375 6.44921875 1.421875 C8.02121028 1.77816098 9.58822945 2.15857552 11.14453125 2.578125 C20.42405275 4.98839032 29.67984062 5.47719091 38.29296875 0.875 C40 0 40 0 42 0 C42.96345444 1.87237371 43.92053102 3.7480299 44.875 5.625 C45.40867188 6.66914062 45.94234375 7.71328125 46.4921875 8.7890625 C47.91454291 11.81801625 49.0122001 14.80643334 50 18 C50.99 17.34 51.98 16.68 53 16 C52.7495604 29.9107813 49.10748092 41.62481924 39.34375 51.7109375 C34.17098163 56.53101711 29.09480478 58.60067035 22.125 59.5 C15.92975821 59.20788644 10.43328952 56.21912359 5.9140625 52.09765625 C2.51962674 48.36664142 -0.02920272 44.63717007 -2 40 C0.1462026 40.14029419 2.29196218 40.28738164 4.4375 40.4375 C5.63246094 40.51871094 6.82742187 40.59992188 8.05859375 40.68359375 C11 41 11 41 12 42 C13.99958364 42.04080783 16.00045254 42.04254356 18 42 C18.67801034 39.09926819 18.67801034 39.09926819 19 36 C17.17296773 33.7508092 17.17296773 33.7508092 14.5 33.75 C11.82703227 33.7508092 11.82703227 33.7508092 10 36 C5.40213417 36.6142532 -0.19642878 36.79674355 -4 34 C-6.09797984 29.65964495 -7 25.81997406 -7 21 C-5.68 21.33 -4.36 21.66 -3 22 C-3.05220703 20.24623047 -3.05220703 20.24623047 -3.10546875 18.45703125 C-3.13361716 16.90886859 -3.16091619 15.36069032 -3.1875 13.8125 C-3.22520508 12.65911133 -3.22520508 12.65911133 -3.26367188 11.48242188 C-3.32421425 6.7802972 -2.96375211 3.88165959 0 0 Z " fill="#FCFBFE" transform="translate(97,62)"/>
<path d="M0 0 C6.27582977 3.48328288 10.56619735 8.04179883 12.75 14.9375 C13.53264341 23.06425074 13.92658079 31.18616648 8.75 37.9375 C3.91461381 43.37730946 0.08240764 46.64300955 -7.23828125 47.140625 C-8.33527344 47.15609375 -9.43226563 47.1715625 -10.5625 47.1875 C-12.19638672 47.22617188 -12.19638672 47.22617188 -13.86328125 47.265625 C-17.25 46.9375 -17.25 46.9375 -24.25 43.9375 C-24.25 52.8475 -24.25 61.7575 -24.25 70.9375 C-27.55 70.9375 -30.85 70.9375 -34.25 70.9375 C-34.25 47.1775 -34.25 23.4175 -34.25 -1.0625 C-30.95 -1.0625 -27.65 -1.0625 -24.25 -1.0625 C-24.25 -0.0725 -24.25 0.9175 -24.25 1.9375 C-23.44949219 1.504375 -23.44949219 1.504375 -22.6328125 1.0625 C-14.7553738 -2.86259056 -8.15594511 -3.69279674 0 0 Z " fill="#6737C9" transform="translate(428.25,115.0625)"/>
<path d="M0 0 C1.134375 0.020625 2.26875 0.04125 3.4375 0.0625 C6.44186155 5.89424868 9.05982283 11.79175388 11.51953125 17.87109375 C11.89679855 18.7960817 12.27406586 19.72106964 12.6627655 20.67408752 C13.86147383 23.61486192 15.05586337 26.55736666 16.25 29.5 C17.43058111 32.40065555 18.61204565 35.30094936 19.79391479 38.20108032 C20.5653737 40.09637995 21.33518716 41.99235022 22.103302 43.88900757 C23.90268245 48.32734971 25.72244068 52.75378276 27.60693359 57.15673828 C27.94013107 57.94178238 28.27332855 58.72682648 28.61662292 59.53565979 C29.23776058 60.99477951 29.86648354 62.45070238 30.50410461 63.9026947 C32.54911461 68.72765616 32.54911461 68.72765616 31.4375 72.0625 C28.1375 72.0625 24.8375 72.0625 21.4375 72.0625 C19.1275 66.1225 16.8175 60.1825 14.4375 54.0625 C4.8675 53.7325 -4.7025 53.4025 -14.5625 53.0625 C-16.53915445 58.95673825 -16.53915445 58.95673825 -18.44140625 64.875 C-18.77978516 65.9578125 -18.77978516 65.9578125 -19.125 67.0625 C-19.35316406 67.805 -19.58132813 68.5475 -19.81640625 69.3125 C-20.5625 71.0625 -20.5625 71.0625 -22.5625 72.0625 C-24.26952735 72.13246014 -25.97918003 72.14690154 -27.6875 72.125 C-29.05261719 72.11146484 -29.05261719 72.11146484 -30.4453125 72.09765625 C-31.49332031 72.08025391 -31.49332031 72.08025391 -32.5625 72.0625 C-31.85031203 66.96216844 -29.80391701 62.44242394 -27.84375 57.72265625 C-27.4669812 56.80528183 -27.0902124 55.88790741 -26.70202637 54.94273376 C-25.49305578 52.00173773 -24.27792851 49.06333223 -23.0625 46.125 C-22.27562471 44.21436438 -21.48916262 42.30355852 -20.703125 40.39257812 C-19.52408935 37.52675118 -18.34421683 34.66128669 -17.16137695 31.79702759 C-15.09235992 26.78675772 -13.03490284 21.77215853 -10.99609375 16.74951172 C-10.58258667 15.73231552 -10.16907959 14.71511932 -9.74304199 13.667099 C-8.94902931 11.7121917 -8.15704292 9.7564599 -7.36730957 7.79981995 C-7.01342163 6.92929489 -6.65953369 6.05876984 -6.29492188 5.16186523 C-5.983573 4.39220932 -5.67222412 3.62255341 -5.35144043 2.82957458 C-3.93755182 -0.33726354 -3.85193912 0.06757788 0 0 Z " fill="#6636C8" transform="translate(479.5625,89.9375)"/>
<path d="M0 0 C5.30354255 3.08345497 8.29606751 8.20662955 10 14 C10 17.63 10 21.26 10 25 C-2.21 25 -14.42 25 -27 25 C-25.3737108 31.69870034 -25.3737108 31.69870034 -20.97265625 36.1171875 C-16.80749752 37.98119913 -12.42439205 37.75168509 -8 37 C-5.74709261 35.88048545 -4.02083736 34.5279502 -2 33 C1.10230903 33 1.9456111 33.95014351 4.25 36.0625 C5.11625 37.0215625 5.11625 37.0215625 6 38 C4.62090338 41.40844088 3.39436506 42.66737535 0.0625 44.1875 C-0.62714844 44.51105469 -1.31679688 44.83460938 -2.02734375 45.16796875 C-8.36054477 47.83920007 -15.19496884 48.13567178 -21.80078125 46.1640625 C-28.8713726 42.96673895 -33.22646354 38.38781511 -36.12890625 31.20703125 C-37.90289215 24.67589929 -38.34922018 16.92117116 -36.125 10.45703125 C-28.24963162 -2.93627616 -13.85011926 -6.80356736 0 0 Z " fill="#6838C9" transform="translate(375,116)"/>
<path d="M0 0 C11.30759616 1.27666408 22.61604876 6.30718322 30.3125 14.81640625 C38 24.76388889 38 24.76388889 38 31 C19.52 31 1.04 31 -18 31 C-15.58482029 26.7734355 -13.52717463 23.22599192 -10.6875 19.4375 C-6.33929925 13.34813661 -3.19516072 6.73994389 0 0 Z " fill="#6433C7" transform="translate(147,120)"/>
<path d="M0 0 C3.17625 -0.0825 6.3525 -0.165 9.625 -0.25 C10.6145166 -0.28641602 11.6040332 -0.32283203 12.62353516 -0.36035156 C18.27918943 -0.43123302 21.54039635 0.17648402 26 4 C29.84072257 8.16078278 31.77898729 11.65726531 32.3125 17.3125 C31.8164375 23.16603753 30.37922022 27.37322744 26.5625 31.875 C22.76593395 35.02337185 20.18542072 36.25878745 15.234375 36.1953125 C14.43225586 36.19031738 13.63013672 36.18532227 12.80371094 36.18017578 C11.79598633 36.16196777 10.78826172 36.14375977 9.75 36.125 C6.5325 36.08375 3.315 36.0425 0 36 C0 24.12 0 12.24 0 0 Z " fill="#FCFBFE" transform="translate(252,98)"/>
<path d="M0 0 C5.94 0 11.88 0 18 0 C17.67 1.65 17.34 3.3 17 5 C15.68 5.66 14.36 6.32 13 7 C13.495 12.94 13.495 12.94 14 19 C14.85111359 18.99333817 15.70222717 18.98667633 16.57913208 18.97981262 C24.61224728 18.91962404 32.64528639 18.87398625 40.67857552 18.84456348 C44.80827605 18.82892825 48.93778978 18.80772939 53.06738281 18.77368164 C57.05499983 18.74101137 61.04243751 18.72313087 65.03017807 18.71536827 C66.54918108 18.70983848 68.06817462 18.69904008 69.58710098 18.68280983 C71.71990177 18.66093289 73.85196779 18.65803725 75.98486328 18.65942383 C77.1973172 18.65276199 78.40977112 18.64610016 79.65896606 18.63923645 C84.31205695 19.1416754 87.67473162 20.63198102 90.9375 24 C93.72671021 31.87541706 90.39049197 42.40804396 89.0390625 50.46484375 C88.75221085 52.19668663 88.75221085 52.19668663 88.45956421 53.96351624 C88.05644076 56.38999469 87.65126951 58.81613375 87.24414062 61.24194336 C86.62749646 64.922599 86.02037961 68.60474019 85.4140625 72.28710938 C85.01880413 74.65895005 84.62298913 77.03069805 84.2265625 79.40234375 C84.0483194 80.48708481 83.87007629 81.57182587 83.68643188 82.68943787 C82.78810464 87.99967343 81.78922825 93.28173724 80.61083984 98.53735352 C80.39889984 99.4910231 80.18695984 100.44469269 79.96859741 101.42726135 C78.59211871 105.08339332 76.48394806 107.25802597 73 109 C71.32625935 109.1013982 69.64851697 109.13945102 67.97172546 109.14717102 C66.90760437 109.15432632 65.84348328 109.16148163 64.74711609 109.16885376 C63.57461807 109.17154266 62.40212006 109.17423157 61.1940918 109.17700195 C59.96312775 109.18357315 58.7321637 109.19014435 57.46389771 109.19691467 C54.08154426 109.21327061 50.69925343 109.22487708 47.31687522 109.2331202 C45.2038554 109.23826995 43.09083998 109.2443457 40.97782326 109.25063133 C34.36716214 109.26968426 27.7565122 109.28391507 21.1458289 109.2922433 C13.51400975 109.3020166 5.88248057 109.32833775 -1.7492364 109.36874419 C-7.64739775 109.39890096 -13.54547595 109.41371174 -19.44371289 109.41702431 C-22.96680541 109.41937536 -26.48958819 109.42834218 -30.01259804 109.45348549 C-33.94379593 109.48108848 -37.87461208 109.47693637 -41.8059082 109.4699707 C-42.97233353 109.48278076 -44.13875885 109.49559082 -45.3405304 109.50878906 C-53.130837 109.45835512 -53.130837 109.45835512 -57.13713074 107.34562683 C-60.64173732 102.93281086 -61.30641254 97.92223208 -62.23681641 92.47900391 C-62.45689362 91.20392975 -62.67697083 89.92885559 -62.90371704 88.61514282 C-63.13662967 87.23566624 -63.36923732 85.85613814 -63.6015625 84.4765625 C-63.84510044 83.04694833 -64.08886851 81.61737334 -64.33285522 80.18783569 C-64.84198783 77.19769983 -65.3474922 74.20697791 -65.85058594 71.21582031 C-66.49288256 67.39952399 -67.14545999 63.5850688 -67.80095863 59.77102089 C-68.306627 56.82054147 -68.80612008 53.86904102 -69.30387497 50.91721725 C-69.54184359 49.51118843 -69.78183983 48.1055011 -70.02397537 46.70018387 C-73.22365644 28.08474801 -73.22365644 28.08474801 -70.3125 23.125 C-65.73484351 18.91850484 -60.9685608 18.60697228 -55 18 C-55 18.66 -55 19.32 -55 20 C-35.53 19.67 -16.06 19.34 4 19 C4.33 15.04 4.66 11.08 5 7 C3.68 6.34 2.36 5.68 1 5 C0.505 2.525 0.505 2.525 0 0 Z M-70 26 C-71.49702028 30.0963 -70.78557411 33.65716954 -70.07543945 37.89819336 C-69.9649678 38.57203568 -69.85449615 39.24587799 -69.74067688 39.94013977 C-69.37421508 42.15838243 -68.99443985 44.37408252 -68.61328125 46.58984375 C-68.35202178 48.13767872 -68.09113779 49.68557711 -67.83061218 51.23353577 C-67.2826806 54.47506008 -66.72769939 57.71528495 -66.16821289 60.95483398 C-65.45398865 65.09583117 -64.76118431 69.24008863 -64.07415485 73.38567257 C-63.54113492 76.58310838 -62.99477489 79.77815882 -62.44463158 82.97268867 C-62.18375152 84.49925473 -61.92742411 86.02660636 -61.67583656 87.55473137 C-61.32153783 89.69659724 -60.94884609 91.83449698 -60.5715332 93.97241211 C-60.36422073 95.1875499 -60.15690826 96.40268768 -59.9433136 97.65464783 C-58.88682393 101.4013658 -57.37188568 103.93005025 -55 107 C-52.5031391 108.24843045 -50.80449802 108.13698767 -48.00968933 108.15390015 C-46.95398239 108.16250061 -45.89827545 108.17110107 -44.81057739 108.17996216 C-43.06585648 108.18635208 -43.06585648 108.18635208 -41.28588867 108.19287109 C-39.45407295 108.20513733 -39.45407295 108.20513733 -37.58525085 108.21765137 C-33.52949351 108.24253741 -29.47377349 108.25917885 -25.41796875 108.2734375 C-24.02198085 108.27879715 -22.62599302 108.28417466 -21.23000526 108.28956985 C-15.42325199 108.31119851 -9.6165015 108.32993537 -3.80971813 108.34119225 C4.51320069 108.35743277 12.83565274 108.39061239 21.15839559 108.44759309 C27.00984576 108.48628904 32.86117107 108.50582447 38.71274585 108.51111281 C42.20797398 108.51476682 45.7027043 108.52679179 49.19779396 108.55921555 C53.0979038 108.59487799 56.99742752 108.59092614 60.89770508 108.58349609 C62.05477966 108.59990143 63.21185425 108.61630676 64.4039917 108.63320923 C70.68250038 108.61375311 70.68250038 108.61375311 76.16552734 105.81413269 C78.08782965 102.86526684 78.87917803 100.84640758 79.45385742 97.39038086 C79.74391914 95.7372715 79.74391914 95.7372715 80.0398407 94.05076599 C80.31982658 92.27573448 80.31982658 92.27573448 80.60546875 90.46484375 C80.81561111 89.23520401 81.02575348 88.00556427 81.24226379 86.73866272 C81.7967664 83.47218648 82.33375289 80.20380357 82.86236572 76.93310547 C83.39829509 73.6436843 83.95721782 70.35827759 84.51367188 67.07226562 C85.51612599 61.12873708 86.49996069 55.18245686 87.46884155 49.23336792 C88.1616335 45.01607405 88.88044023 40.80328849 89.60346985 36.59107971 C90.17074685 32.88427476 90.40119337 29.74447142 90 26 C88.12984906 23.56880377 86.71861655 22.35930827 84 21 C82.0476299 20.89547068 80.09166119 20.8560909 78.13652039 20.84609985 C76.26267166 20.83319916 76.26267166 20.83319916 74.35096741 20.82003784 C72.9588322 20.81560249 71.56669656 20.81130414 70.17456055 20.80712891 C68.71441451 20.79922885 67.25427043 20.79095996 65.79412842 20.78234863 C60.99167753 20.75611849 56.18921787 20.74082054 51.38671875 20.7265625 C49.73441881 20.72120333 48.08211893 20.71582582 46.42981911 20.71043015 C39.55763219 20.68880043 32.68544763 20.67006302 25.81323528 20.65880775 C15.95939787 20.64256384 6.10595449 20.60937674 -3.74773437 20.55240691 C-10.67348564 20.51372812 -17.59913142 20.49417756 -24.52498788 20.48888719 C-28.66293347 20.485231 -32.80045891 20.47318201 -36.93828773 20.44078445 C-40.83146425 20.41073948 -44.7239656 20.40437876 -48.61723328 20.41616821 C-50.04549868 20.41638925 -51.47379508 20.40805908 -52.90195274 20.39051437 C-54.85302677 20.36785189 -56.8044065 20.37909313 -58.75556946 20.39199829 C-59.84714009 20.38868814 -60.93871073 20.385378 -62.06335926 20.38196754 C-65.9784264 21.2059153 -67.48469228 22.96547972 -70 26 Z " fill="#916ED7" transform="translate(110,131)"/>
<path d="M0 0 C1.64574566 -0.02688151 3.29161413 -0.04634123 4.9375 -0.0625 C5.85402344 -0.07410156 6.77054688 -0.08570312 7.71484375 -0.09765625 C10 0 10 0 11 1 C11.09432985 3.20867831 11.11742431 5.42041521 11.11352539 7.63110352 C11.11367142 8.32375305 11.11381744 9.01640259 11.1139679 9.7300415 C11.11326874 12.02969446 11.10547628 14.32926737 11.09765625 16.62890625 C11.09579208 18.21931412 11.09436817 19.80972257 11.09336853 21.40013123 C11.08954329 25.5939593 11.07971295 29.78775295 11.06866455 33.98156738 C11.05845057 38.25788914 11.05387094 42.53421644 11.04882812 46.81054688 C11.03809069 55.20704708 11.02101419 63.60351926 11 72 C9.35425434 72.02688151 7.70838587 72.04634123 6.0625 72.0625 C5.14597656 72.07410156 4.22945312 72.08570313 3.28515625 72.09765625 C1 72 1 72 0 71 C-0.09432985 68.79132169 -0.11742431 66.57958479 -0.11352539 64.36889648 C-0.11367142 63.67624695 -0.11381744 62.98359741 -0.1139679 62.2699585 C-0.11326874 59.97030554 -0.10547628 57.67073263 -0.09765625 55.37109375 C-0.09579208 53.78068588 -0.09436817 52.19027743 -0.09336853 50.59986877 C-0.08954329 46.4060407 -0.07971295 42.21224705 -0.06866455 38.01843262 C-0.05845057 33.74211086 -0.05387094 29.46578356 -0.04882812 25.18945312 C-0.03809069 16.79295292 -0.02101419 8.39648074 0 0 Z " fill="#6838C9" transform="translate(522,90)"/>
<path d="M0 0 C4.13361365 1.30132281 5.65008982 2.56721635 8.375 5.9375 C10.90125265 10.89487444 10.81723744 16.59592541 10 22 C7.61250938 26.64197341 5.06714196 30.31095268 0 32 C-4.81591705 32.58023097 -9.42643901 33.01130302 -13.4375 29.9375 C-17.90891895 24.81172706 -19.60349129 19.92894948 -19.3515625 13.20703125 C-18.58547657 8.39771403 -16.04537311 5.19910445 -12.875 1.5625 C-8.5924299 -0.76498375 -4.76821616 -0.612291 0 0 Z " fill="#FCFBFD" transform="translate(421,122)"/>
<path d="M0 0 C1.15122345 -0.00281982 2.3024469 -0.00563965 3.48855591 -0.00854492 C5.40002663 -0.00550858 5.40002663 -0.00550858 7.35011292 -0.00241089 C8.69675239 -0.00376493 10.0433915 -0.00554488 11.39002991 -0.00772095 C15.05735257 -0.01229536 18.72464722 -0.01050558 22.3919704 -0.00734186 C26.22275034 -0.00481778 30.05352782 -0.00715598 33.88430786 -0.00872803 C40.31969129 -0.0105498 46.75506326 -0.00814344 53.19044495 -0.00338745 C60.63797151 0.00205288 68.0854707 0.00029421 75.53299659 -0.00521386 C81.91771093 -0.00974751 88.302417 -0.01039422 94.68713242 -0.00777519 C98.5045654 -0.00621351 102.32198549 -0.00601562 106.13941765 -0.00931168 C109.7287029 -0.01219397 113.31795277 -0.01020807 116.90723419 -0.00441742 C118.85823009 -0.00245767 120.80922897 -0.00544086 122.76022339 -0.00854492 C124.4912883 -0.00431519 124.4912883 -0.00431519 126.25732422 0 C127.76803828 0.00056554 127.76803828 0.00056554 129.30927181 0.0011425 C131.69215393 0.12698364 131.69215393 0.12698364 133.69215393 1.12698364 C133.36215393 2.44698364 133.03215393 3.76698364 132.69215393 5.12698364 C87.15215393 5.12698364 41.61215393 5.12698364 -5.30784607 5.12698364 C-5.63784607 3.80698364 -5.96784607 2.48698364 -6.30784607 1.12698364 C-4.59240809 -0.58845433 -2.34216448 0.00087712 0 0 Z " fill="#6838C9" transform="translate(56.30784606933594,241.87301635742188)"/>
<path d="M0 0 C0.66 0.33 1.32 0.66 2 1 C2.125 6.75 2.125 6.75 1 9 C-1.109375 9.203125 -1.109375 9.203125 -3.75 9.25 C-7.51362635 9.51900921 -7.51362635 9.51900921 -10.73828125 11.2890625 C-14.60379973 15.91856251 -15.1329623 19.76234004 -15.28125 25.6015625 C-15.31863281 26.89578125 -15.35601562 28.19 -15.39453125 29.5234375 C-15.4482887 31.58200266 -15.50039306 33.64060482 -15.55224609 35.69921875 C-15.60384945 37.68760498 -15.66120661 39.6758393 -15.71875 41.6640625 C-15.76418945 43.44997803 -15.76418945 43.44997803 -15.81054688 45.27197266 C-16 48 -16 48 -17 49 C-19.97 49 -22.94 49 -26 49 C-26 33.16 -26 17.32 -26 1 C-22.7 1 -19.4 1 -16 1 C-16 1.99 -16 2.98 -16 4 C-15.030625 3.34 -14.06125 2.68 -13.0625 2 C-8.78811611 -0.46867478 -4.83545745 -0.60073911 0 0 Z " fill="#6636C8" transform="translate(332,113)"/>
<path d="M0 0 C9.1471799 6.80593742 15.75991962 15.01972759 19 26 C19.1875 29.5 19.1875 29.5 19 32 C16.70585711 29.70585711 16.54269064 28.59718447 15.8125 25.5 C13.40229303 17.24325137 9.21589027 10.99881533 1.8125 6.5 C0.22304374 5.63894023 -1.38043631 4.80299975 -3 4 C-3.58136719 3.62746094 -4.16273438 3.25492188 -4.76171875 2.87109375 C-11.40087647 0.28726797 -21.37044074 0.95465104 -28.16015625 2.91015625 C-30.63412645 4.0993444 -32.78059049 5.38858965 -35 7 C-35.65226562 7.45761719 -36.30453125 7.91523437 -36.9765625 8.38671875 C-43.234852 13.24687975 -46.80840245 19.4573789 -49 27 C-49.27156121 30.08801596 -49.27156121 30.08801596 -49.1953125 33.2734375 C-49.18886719 34.42714844 -49.18242188 35.58085938 -49.17578125 36.76953125 C-49.15902344 37.95933594 -49.14226562 39.14914063 -49.125 40.375 C-49.11597656 41.58800781 -49.10695313 42.80101562 -49.09765625 44.05078125 C-49.07416588 47.03405773 -49.04131682 50.01692594 -49 53 C-50.96679688 51.80859375 -50.96679688 51.80859375 -53 50 C-53.51757812 47.72265625 -53.51757812 47.72265625 -53.53125 45.0625 C-53.53946777 44.08998291 -53.54768555 43.11746582 -53.55615234 42.11547852 C-53.52835693 40.57331665 -53.52835693 40.57331665 -53.5 39 C-53.48791504 37.95577881 -53.47583008 36.91155762 -53.46337891 35.83569336 C-53.10805041 22.07155947 -48.6060688 13.1888807 -38.75 3.75 C-27.86675084 -5.44915237 -12.49762445 -7.64657286 0 0 Z " fill="#F5F2FB" transform="translate(136,39)"/>
<path d="M0 0 C0.66 0 1.32 0 2 0 C3.31848524 3.56031336 4.62872561 7.12360666 5.9375 10.6875 C6.49727539 12.19860352 6.49727539 12.19860352 7.06835938 13.74023438 C7.60493164 15.20493164 7.60493164 15.20493164 8.15234375 16.69921875 C8.48226318 17.59471436 8.81218262 18.49020996 9.15209961 19.4128418 C10 22 10 22 11 27 C4.4 27 -2.2 27 -9 27 C-10.23955273 23.28134181 -9.59247284 22.28839211 -8.1640625 18.7109375 C-7.75929688 17.68742187 -7.35453125 16.66390625 -6.9375 15.609375 C-6.2878125 14.00835937 -6.2878125 14.00835937 -5.625 12.375 C-5.19960938 11.29992187 -4.77421875 10.22484375 -4.3359375 9.1171875 C-1.16183036 1.16183036 -1.16183036 1.16183036 0 0 Z " fill="#F6F3FB" transform="translate(479,107)"/>
<path d="M0 0 C3.55249723 1.24887425 6.24499041 2.91672537 8.4375 6.0625 C9 8 9 8 9 11 C0.09 11 -8.82 11 -18 11 C-16.91910497 5.59552487 -15.98080159 4.49533798 -12 1 C-8.28224461 -0.8588777 -4.05696168 -0.4426879 0 0 Z " fill="#FAF8FD" transform="translate(366,122)"/>
<path d="M0 0 C5.94 0 11.88 0 18 0 C17.67 1.65 17.34 3.3 17 5 C15.02 5.99 15.02 5.99 13 7 C13 11.29 13 15.58 13 20 C10.36 20 7.72 20 5 20 C5 15.71 5 11.42 5 7 C3.68 6.34 2.36 5.68 1 5 C0.67 3.35 0.34 1.7 0 0 Z " fill="#6636C8" transform="translate(110,131)"/>
<path d="M0 0 C2.625 0.375 2.625 0.375 5 1 C6.125 5.75 6.125 5.75 5 8 C3.00045254 8.04254356 0.99958364 8.04080783 -1 8 C-2 7 -2 7 -2.1875 4.5625 C-2 2 -2 2 0 0 Z " fill="#6838C9" transform="translate(118,190)"/>
<path d="M0 0 C0.33 0 0.66 0 1 0 C1.33 7.26 1.66 14.52 2 22 C0.68 21.01 -0.64 20.02 -2 19 C-2.15934697 16.16181997 -2.10803135 13.79140539 -1.8125 11 C-1.75513672 10.27554688 -1.69777344 9.55109375 -1.63867188 8.8046875 C-1.37250202 5.70223451 -0.98752338 2.96257015 0 0 Z " fill="#D3C5EF" transform="translate(85,70)"/>
<path d="M0 0 C2.67055431 1.00987348 3.80669101 1.66827223 5.265625 4.171875 C7.07667279 8.9150954 8.5444976 12.82727284 8 18 C5.70064805 15.70064805 5.39388141 14.35006628 4.5625 11.25 C3.42193549 7.2347474 2.02781103 3.66937234 0 0 Z " fill="#E2D9F4" transform="translate(147,53)"/>
</svg>
